<svg xmlns="http://www.w3.org/2000/svg" width="16" height="15.832" viewBox="0 0 16 15.832">
  <g id="Group_4" data-name="Group 4" transform="translate(0 -0.084)">
    <path id="Path_5" data-name="Path 5" d="M16,14.051H1.885V.084H.041L0,15.875H.041v.041L16,15.875Z" fill="#f6f6f6" fill-rule="evenodd"/>
    <path id="Path_6" data-name="Path 6" d="M15.873,13H12.122a.131.131,0,0,1-.13-.13l1.537-1.542L10.03,6.84,7,8.977,3,3.76,3.062,2l4,4.966,2.968-2.011,4.389,5.48L15.87,8.977a.131.131,0,0,1,.13.13V12.87a.123.123,0,0,1-.009.049.125.125,0,0,1-.027.042.128.128,0,0,1-.042.028A.126.126,0,0,1,15.873,13Z" fill="#f6f6f6" fill-rule="evenodd"/>
  </g>
</svg>
