<svg width="16" height="16" viewBox="0 0 16 16" fill="none" xmlns="http://www.w3.org/2000/svg">
<path fill-rule="evenodd" clip-rule="evenodd" d="M16 14.1992H1.885V0.0840149H0.041L0 16.0426H0.041V16.084L16 16.0426V14.1992Z" fill="#F6F6F6"/>
<path fill-rule="evenodd" clip-rule="evenodd" d="M15.816 2.02033H12.089C12.0548 2.02059 12.0222 2.03441 11.9981 2.05881C11.9739 2.0832 11.9602 2.1162 11.96 2.1507L13.487 3.69997L10.011 8.21032L6.99998 6.06277L3.02698 11.3058L3.08898 13.0744L7.06098 8.084L10.01 10.1052L14.37 4.5984L15.813 6.06277C15.8471 6.06251 15.8798 6.04869 15.9039 6.0243C15.928 5.99991 15.9417 5.9669 15.942 5.93241V2.1507C15.9425 2.13369 15.9396 2.11674 15.9335 2.10088C15.9274 2.08501 15.9182 2.07056 15.9065 2.05838C15.8947 2.04621 15.8806 2.03656 15.8651 2.03002C15.8495 2.02348 15.8328 2.02018 15.816 2.02033Z" fill="#F6F6F6"/>
</svg>
