<svg width="19" height="20" viewBox="0 0 19 20" fill="none" xmlns="http://www.w3.org/2000/svg">
<path fill-rule="evenodd" clip-rule="evenodd" d="M4.49992 0.833344C3.39485 0.833344 2.33504 1.27233 1.55364 2.05373C0.772239 2.83513 0.333252 3.89494 0.333252 5.00001C0.333252 6.10508 0.772239 7.16489 1.55364 7.94629C2.33504 8.72769 3.39485 9.16668 4.49992 9.16668C5.60499 9.16668 6.6648 8.72769 7.4462 7.94629C8.2276 7.16489 8.66659 6.10508 8.66659 5.00001C8.66659 3.89494 8.2276 2.83513 7.4462 2.05373C6.6648 1.27233 5.60499 0.833344 4.49992 0.833344ZM1.99992 5.00001C1.99992 4.33697 2.26331 3.70108 2.73215 3.23224C3.20099 2.7634 3.83688 2.50001 4.49992 2.50001C5.16296 2.50001 5.79885 2.7634 6.26769 3.23224C6.73653 3.70108 6.99992 4.33697 6.99992 5.00001C6.99992 5.66305 6.73653 6.29894 6.26769 6.76778C5.79885 7.23662 5.16296 7.50001 4.49992 7.50001C3.83688 7.50001 3.20099 7.23662 2.73215 6.76778C2.26331 6.29894 1.99992 5.66305 1.99992 5.00001ZM14.4999 0.833344C13.3949 0.833344 12.335 1.27233 11.5536 2.05373C10.7722 2.83513 10.3333 3.89494 10.3333 5.00001C10.3333 6.10508 10.7722 7.16489 11.5536 7.94629C12.335 8.72769 13.3949 9.16668 14.4999 9.16668C15.605 9.16668 16.6648 8.72769 17.4462 7.94629C18.2276 7.16489 18.6666 6.10508 18.6666 5.00001C18.6666 3.89494 18.2276 2.83513 17.4462 2.05373C16.6648 1.27233 15.605 0.833344 14.4999 0.833344ZM11.9999 5.00001C11.9999 4.33697 12.2633 3.70108 12.7322 3.23224C13.201 2.7634 13.8369 2.50001 14.4999 2.50001C15.163 2.50001 15.7988 2.7634 16.2677 3.23224C16.7365 3.70108 16.9999 4.33697 16.9999 5.00001C16.9999 5.66305 16.7365 6.29894 16.2677 6.76778C15.7988 7.23662 15.163 7.50001 14.4999 7.50001C13.8369 7.50001 13.201 7.23662 12.7322 6.76778C12.2633 6.29894 11.9999 5.66305 11.9999 5.00001ZM0.333252 15C0.333252 13.8949 0.772239 12.8351 1.55364 12.0537C2.33504 11.2723 3.39485 10.8333 4.49992 10.8333C5.60499 10.8333 6.6648 11.2723 7.4462 12.0537C8.2276 12.8351 8.66659 13.8949 8.66659 15C8.66659 16.1051 8.2276 17.1649 7.4462 17.9463C6.6648 18.7277 5.60499 19.1667 4.49992 19.1667C3.39485 19.1667 2.33504 18.7277 1.55364 17.9463C0.772239 17.1649 0.333252 16.1051 0.333252 15ZM4.49992 12.5C3.83688 12.5 3.20099 12.7634 2.73215 13.2322C2.26331 13.7011 1.99992 14.337 1.99992 15C1.99992 15.6631 2.26331 16.2989 2.73215 16.7678C3.20099 17.2366 3.83688 17.5 4.49992 17.5C5.16296 17.5 5.79885 17.2366 6.26769 16.7678C6.73653 16.2989 6.99992 15.6631 6.99992 15C6.99992 14.337 6.73653 13.7011 6.26769 13.2322C5.79885 12.7634 5.16296 12.5 4.49992 12.5ZM14.4999 10.8333C13.3949 10.8333 12.335 11.2723 11.5536 12.0537C10.7722 12.8351 10.3333 13.8949 10.3333 15C10.3333 16.1051 10.7722 17.1649 11.5536 17.9463C12.335 18.7277 13.3949 19.1667 14.4999 19.1667C15.605 19.1667 16.6648 18.7277 17.4462 17.9463C18.2276 17.1649 18.6666 16.1051 18.6666 15C18.6666 13.8949 18.2276 12.8351 17.4462 12.0537C16.6648 11.2723 15.605 10.8333 14.4999 10.8333ZM11.9999 15C11.9999 14.337 12.2633 13.7011 12.7322 13.2322C13.201 12.7634 13.8369 12.5 14.4999 12.5C15.163 12.5 15.7988 12.7634 16.2677 13.2322C16.7365 13.7011 16.9999 14.337 16.9999 15C16.9999 15.6631 16.7365 16.2989 16.2677 16.7678C15.7988 17.2366 15.163 17.5 14.4999 17.5C13.8369 17.5 13.201 17.2366 12.7322 16.7678C12.2633 16.2989 11.9999 15.6631 11.9999 15Z" fill="#F6F6F6"/>
</svg>
