<svg width="23" height="18" viewBox="0 0 23 18" fill="none" xmlns="http://www.w3.org/2000/svg">
<path d="M1 3.79171C1 3.23917 1.21949 2.70927 1.61019 2.31857C2.00089 1.92787 2.5308 1.70837 3.08333 1.70837H19.75C20.3025 1.70837 20.8324 1.92787 21.2231 2.31857C21.6138 2.70927 21.8333 3.23917 21.8333 3.79171V14.2084C21.8333 14.7609 21.6138 15.2908 21.2231 15.6815C20.8324 16.0722 20.3025 16.2917 19.75 16.2917H3.08333C2.5308 16.2917 2.00089 16.0722 1.61019 15.6815C1.21949 15.2908 1 14.7609 1 14.2084V3.79171Z" stroke="#F6F6F6" stroke-width="2" stroke-linecap="round" stroke-linejoin="round"/>
<path d="M11.4167 12.125C13.1426 12.125 14.5417 10.7259 14.5417 9C14.5417 7.27411 13.1426 5.875 11.4167 5.875C9.69086 5.875 8.29175 7.27411 8.29175 9C8.29175 10.7259 9.69086 12.125 11.4167 12.125Z" stroke="#F6F6F6" stroke-width="2" stroke-linecap="round" stroke-linejoin="round"/>
<path d="M1 5.87504C2.10507 5.87504 3.16488 5.43605 3.94628 4.65465C4.72768 3.87325 5.16667 2.81344 5.16667 1.70837" stroke="#F6F6F6" stroke-width="2" stroke-linecap="round" stroke-linejoin="round"/>
<path d="M17.6667 16.2917C17.6667 15.1866 18.1057 14.1268 18.8871 13.3454C19.6685 12.564 20.7283 12.125 21.8334 12.125" stroke="#F6F6F6" stroke-width="2" stroke-linecap="round" stroke-linejoin="round"/>
</svg>
