<svg width="25" height="26" viewBox="0 0 25 26" fill="none" xmlns="http://www.w3.org/2000/svg">
<path d="M2.08325 10C2.08325 12.829 3.1895 15.5421 5.15863 17.5425C7.12776 19.5429 9.79848 20.6667 12.5833 20.6667C15.368 20.6667 18.0387 19.5429 20.0079 17.5425C21.977 15.5421 23.0833 12.829 23.0833 10" stroke="#F6F6F6" stroke-width="2" stroke-linecap="round" stroke-linejoin="round"/>
<path d="M12.5833 20.6667C12.5833 17.8377 13.6895 15.1246 15.6586 13.1242C17.6278 11.1238 20.2985 10 23.0833 10" stroke="#F6F6F6" stroke-width="2" stroke-linecap="round" stroke-linejoin="round"/>
<path d="M2.08325 10C3.46213 10 4.82751 10.2759 6.10143 10.812C7.37535 11.348 8.53286 12.1337 9.50787 13.1242C10.4829 14.1147 11.2563 15.2906 11.784 16.5847C12.3117 17.8788 12.5833 19.2659 12.5833 20.6667" stroke="#F6F6F6" stroke-width="2" stroke-linecap="round" stroke-linejoin="round"/>
<path d="M12.5833 4.66663C13.6414 5.69282 14.4696 6.93854 15.0113 8.31902C15.5531 9.6995 15.7957 11.1823 15.7228 12.6666" stroke="#F6F6F6" stroke-width="2" stroke-linecap="round" stroke-linejoin="round"/>
<path d="M9.44383 12.6666C9.37087 11.1823 9.61352 9.6995 10.1553 8.31902C10.697 6.93854 11.5252 5.69282 12.5833 4.66663" stroke="#F6F6F6" stroke-width="2" stroke-linecap="round" stroke-linejoin="round"/>
</svg>
