<svg width="25" height="26" viewBox="0 0 25 26" fill="none" xmlns="http://www.w3.org/2000/svg">
<path d="M16.5267 16.0417L18.1667 22.0417H6.16675L7.80675 16.0417H16.5267ZM18.1667 14.0417H6.16675L4.16675 22.0417C4.2089 22.5581 4.43314 23.0427 4.79948 23.409C5.16581 23.7754 5.65039 23.9996 6.16675 24.0417H18.1667C18.685 24.005 19.1727 23.7825 19.5401 23.4151C19.9075 23.0477 20.13 22.56 20.1667 22.0417L18.1667 14.0417Z" fill="#F6F6F6"/>
<path d="M23.0833 10.9167H2.08325V13.9167H23.0833V10.9167Z" fill="#F6F6F6"/>
<path d="M10.2917 8.54175C10.557 8.54175 10.8113 8.64711 10.9989 8.83464C11.1864 9.02218 11.2917 9.27653 11.2917 9.54175H13.2917C13.2917 9.27653 13.3971 9.02218 13.5846 8.83464C13.7722 8.64711 14.0265 8.54175 14.2917 8.54175C14.557 8.54175 14.8113 8.64711 14.9989 8.83464C15.1864 9.02218 15.2917 9.27653 15.2917 9.54175H17.2917C17.1405 8.88453 16.8606 8.26376 16.4682 7.71523C16.0759 7.1667 15.5788 6.70126 15.0057 6.34575C15.2047 5.7087 15.3013 5.04408 15.2917 4.37675C15.2917 2.81175 14.8437 1.54175 14.2917 1.54175C13.7397 1.54175 13.2917 2.81175 13.2917 4.37675C13.2901 4.81302 13.3286 5.24852 13.4067 5.67775C12.6732 5.49557 11.9061 5.49591 11.1727 5.67875C11.2524 5.24934 11.2922 4.81349 11.2917 4.37675C11.2917 2.81175 10.8437 1.54175 10.2917 1.54175C9.73975 1.54175 9.29175 2.81175 9.29175 4.37675C9.28117 5.04459 9.37669 5.70987 9.57475 6.34775C9.00243 6.70333 8.50608 7.16859 8.11426 7.71675C7.72245 8.2649 7.44292 8.88514 7.29175 9.54175H9.29175C9.29175 9.27653 9.3971 9.02218 9.58464 8.83464C9.77218 8.64711 10.0265 8.54175 10.2917 8.54175Z" fill="#F6F6F6"/>
</svg>
