<svg width="13" height="11" viewBox="0 0 13 11" fill="none" xmlns="http://www.w3.org/2000/svg">
<path fill-rule="evenodd" clip-rule="evenodd" d="M12.8731 4.55586e-06H9.1216C9.08724 0.000267598 9.05437 0.0140202 9.03007 0.0382927C9.00578 0.0625652 8.99201 0.0954101 8.99175 0.129736L10.5288 1.67142L7.02993 6.15972L3.99913 4.02268L0 9.24008L0.062408 11L4.06053 6.03401L7.02892 8.04535L11.4176 2.56546L12.8701 4.02268C12.9044 4.02241 12.9373 4.00866 12.9616 3.98439C12.9859 3.96012 12.9997 3.92727 12.9999 3.89294V0.129736C13.0005 0.112807 12.9976 0.0959433 12.9914 0.080157C12.9853 0.0643707 12.976 0.0499875 12.9642 0.0378709C12.9523 0.0257544 12.9382 0.0161544 12.9225 0.00964738C12.9069 0.00314031 12.8901 -0.000139637 12.8731 4.55586e-06Z" fill="#2DB020"/>
</svg>
