<svg xmlns="http://www.w3.org/2000/svg" width="24" height="24" viewBox="0 0 24 24">
  <path id="Path_4" data-name="Path 4" d="M11.058.038A12,12,0,1,1,.008,11.61a1.126,1.126,0,1,1,2.25.068,9.75,9.75,0,1,0,2.36-6.043l-.306.372H7.88l.153.012a1.125,1.125,0,0,1,0,2.229l-.153.01h-6l-.153-.01a1.125,1.125,0,0,1-.961-.961L.755,7.133v-6L.765.98A1.125,1.125,0,0,1,1.727.018L1.88.008l.153.01A1.125,1.125,0,0,1,2.994.98L3,1.133V4.062A11.966,11.966,0,0,1,11.058.039Zm.567,5.968.153.01a1.125,1.125,0,0,1,.962.962l.01.153V12l2.625,0,.153.01a1.125,1.125,0,0,1,0,2.231l-.153.009h-3.75l-.153-.009a1.125,1.125,0,0,1-.962-.963l-.01-.153V7.131l.01-.153a1.125,1.125,0,0,1,.962-.962Z" transform="translate(-0.001 0)" fill="#f6f6f6"/>
</svg>
                                                                                                                                     