<svg width="20" height="20" viewBox="0 0 20 20" fill="none" xmlns="http://www.w3.org/2000/svg">
<path d="M9.96113 7.38888C10.3907 7.38888 10.7389 7.04066 10.7389 6.61111C10.7389 6.18155 10.3907 5.83333 9.96113 5.83333C9.53157 5.83333 9.18335 6.18155 9.18335 6.61111C9.18335 7.04066 9.53157 7.38888 9.96113 7.38888Z" fill="#00FFBB"/>
<path d="M11.6667 12.7778H10.5556V8.33333H8.88894C8.7416 8.33333 8.60029 8.39186 8.49611 8.49605C8.39192 8.60023 8.33339 8.74154 8.33339 8.88888C8.33339 9.03623 8.39192 9.17753 8.49611 9.28172C8.60029 9.38591 8.7416 9.44444 8.88894 9.44444H9.4445V12.7778H8.33339C8.18605 12.7778 8.04474 12.8363 7.94055 12.9405C7.83636 13.0447 7.77783 13.186 7.77783 13.3333C7.77783 13.4807 7.83636 13.622 7.94055 13.7262C8.04474 13.8304 8.18605 13.8889 8.33339 13.8889H11.6667C11.8141 13.8889 11.9554 13.8304 12.0596 13.7262C12.1637 13.622 12.2223 13.4807 12.2223 13.3333C12.2223 13.186 12.1637 13.0447 12.0596 12.9405C11.9554 12.8363 11.8141 12.7778 11.6667 12.7778Z" fill="#00FFBB"/>
<path d="M10 3.33333C8.6815 3.33333 7.39257 3.72432 6.29624 4.45686C5.19991 5.18941 4.34543 6.2306 3.84085 7.44877C3.33626 8.66695 3.20424 10.0074 3.46148 11.3006C3.71871 12.5938 4.35365 13.7817 5.286 14.714C6.21835 15.6464 7.40623 16.2813 8.69944 16.5386C9.99265 16.7958 11.3331 16.6638 12.5513 16.1592C13.7694 15.6546 14.8106 14.8001 15.5432 13.7038C16.2757 12.6075 16.6667 11.3185 16.6667 10C16.6667 8.23189 15.9643 6.53619 14.7141 5.28595C13.4638 4.03571 11.7682 3.33333 10 3.33333ZM10 15.5556C8.90126 15.5556 7.82715 15.2297 6.91354 14.6193C5.99994 14.0088 5.28787 13.1412 4.86738 12.126C4.44689 11.1109 4.33687 9.99383 4.55124 8.91616C4.7656 7.83849 5.29471 6.84858 6.07167 6.07162C6.84863 5.29467 7.83854 4.76555 8.91621 4.55119C9.99388 4.33683 11.1109 4.44684 12.1261 4.86733C13.1412 5.28782 14.0089 5.99989 14.6193 6.91349C15.2298 7.8271 15.5556 8.90121 15.5556 10C15.5556 10.7296 15.4119 11.452 15.1327 12.126C14.8535 12.8 14.4443 13.4125 13.9284 13.9284C13.4125 14.4442 12.8001 14.8535 12.1261 15.1327C11.452 15.4119 10.7296 15.5556 10 15.5556Z" fill="#00FFBB"/>
</svg>
